<svg width="45" height="46" viewBox="0 0 45 46" fill="none" xmlns="http://www.w3.org/2000/svg">
<path d="M40.3125 20.9375V8.1875C40.3125 5.375 39.1125 4.25 36.1313 4.25H28.5562C25.575 4.25 24.375 5.375 24.375 8.1875V20.9375C24.375 23.75 25.575 24.875 28.5562 24.875H36.1313C39.1125 24.875 40.3125 23.75 40.3125 20.9375Z" fill="#292D32"/>
<path d="M20.625 25.0625V37.8125C20.625 40.625 19.425 41.75 16.4438 41.75H8.86875C5.8875 41.75 4.6875 40.625 4.6875 37.8125V25.0625C4.6875 22.25 5.8875 21.125 8.86875 21.125H16.4438C19.425 21.125 20.625 22.25 20.625 25.0625Z" fill="#292D32"/>
<path d="M40.3125 37.8125V32.5625C40.3125 29.75 39.1125 28.625 36.1313 28.625H28.5562C25.575 28.625 24.375 29.75 24.375 32.5625V37.8125C24.375 40.625 25.575 41.75 28.5562 41.75H36.1313C39.1125 41.75 40.3125 40.625 40.3125 37.8125Z" fill="#292D32"/>
<path d="M20.625 13.4375V8.1875C20.625 5.375 19.425 4.25 16.4438 4.25H8.86875C5.8875 4.25 4.6875 5.375 4.6875 8.1875V13.4375C4.6875 16.25 5.8875 17.375 8.86875 17.375H16.4438C19.425 17.375 20.625 16.25 20.625 13.4375Z" fill="#292D32"/>
</svg>
