<svg width="51" height="52" viewBox="0 0 51 52" fill="none" xmlns="http://www.w3.org/2000/svg">
<path fill-rule="evenodd" clip-rule="evenodd" d="M8.69369 9.28573C6.98683 10.9926 5.99487 13.6813 5.99487 17.6534V28.193C5.99487 33.3264 7.03547 35.8955 8.61685 37.2792C10.2504 38.7086 12.8735 39.2595 17.0614 39.2595H18.1153C18.7115 39.2595 19.2915 39.4455 19.7476 39.6716C20.198 39.8949 20.7074 40.2464 21.072 40.7424L24.2283 44.9508C24.6692 45.5387 25.1425 45.7097 25.493 45.7097C25.8435 45.7097 26.3169 45.5387 26.7578 44.9508L29.9196 40.735L29.9257 40.727C30.6206 39.8126 31.7157 39.2595 32.8707 39.2595H33.9246C37.8968 39.2595 40.5855 38.2675 42.2923 36.5607C43.9992 34.8538 44.9911 32.1651 44.9911 28.193V17.6534C44.9911 13.6813 43.9992 10.9926 42.2923 9.28573C40.5855 7.57887 37.8968 6.58691 33.9246 6.58691H17.0614C13.0893 6.58691 10.4005 7.57887 8.69369 9.28573ZM6.45791 7.04995C8.96687 4.541 12.6019 3.42505 17.0614 3.42505H33.9246C38.3841 3.42505 42.0191 4.541 44.5281 7.04995C47.0371 9.55891 48.153 13.1939 48.153 17.6534V28.193C48.153 32.6525 47.0371 36.2875 44.5281 38.7964C42.0191 41.3054 38.3841 42.4213 33.9246 42.4213H32.8707C32.7198 42.4213 32.5515 42.4995 32.4452 42.6373C32.4445 42.6382 32.4438 42.6392 32.443 42.6402L29.2872 46.8479C28.3369 48.115 26.9764 48.8715 25.493 48.8715C24.0096 48.8715 22.6491 48.115 21.6988 46.8479L18.5343 42.6286C18.5296 42.6242 18.5201 42.6156 18.5047 42.6036C18.4665 42.5739 18.4112 42.5382 18.3433 42.5045C18.2755 42.4709 18.2109 42.4471 18.159 42.4331C18.1285 42.4249 18.1104 42.4221 18.1047 42.4213H17.0614C12.8176 42.4213 9.11697 41.9182 6.53475 39.6588C3.90031 37.3536 2.83301 33.599 2.83301 28.193V17.6534C2.83301 13.1939 3.94896 9.55891 6.45791 7.04995Z" fill="white"/>
<path fill-rule="evenodd" clip-rule="evenodd" d="M13.3726 17.6534C13.3726 16.7803 14.0804 16.0725 14.9535 16.0725H36.0326C36.9057 16.0725 37.6135 16.7803 37.6135 17.6534C37.6135 18.5266 36.9057 19.2344 36.0326 19.2344H14.9535C14.0804 19.2344 13.3726 18.5266 13.3726 17.6534Z" fill="white"/>
<path fill-rule="evenodd" clip-rule="evenodd" d="M13.3726 28.1925C13.3726 27.3194 14.0804 26.6116 14.9535 26.6116H27.6009C28.4741 26.6116 29.1819 27.3194 29.1819 28.1925C29.1819 29.0656 28.4741 29.7734 27.6009 29.7734H14.9535C14.0804 29.7734 13.3726 29.0656 13.3726 28.1925Z" fill="white"/>
</svg>
