<svg width="27" height="27" viewBox="0 0 27 27" fill="none" xmlns="http://www.w3.org/2000/svg">
<path d="M13.3886 24.1398C13.0434 24.1398 12.7092 24.0952 12.4308 23.995C8.17609 22.5359 1.41535 17.3568 1.41535 9.70501C1.41535 5.80673 4.56739 2.64355 8.4434 2.64355C10.3257 2.64355 12.0855 3.37866 13.3886 4.69294C14.6918 3.37866 16.4516 2.64355 18.3339 2.64355C22.2099 2.64355 25.3619 5.81787 25.3619 9.70501C25.3619 17.3679 18.6012 22.5359 14.3465 23.995C14.0681 24.0952 13.7339 24.1398 13.3886 24.1398ZM8.4434 4.31425C5.49184 4.31425 3.08604 6.73118 3.08604 9.70501C3.08604 17.3122 10.4037 21.5447 12.9765 22.4245C13.177 22.4914 13.6114 22.4914 13.8119 22.4245C16.3736 21.5447 23.7024 17.3234 23.7024 9.70501C23.7024 6.73118 21.2966 4.31425 18.345 4.31425C16.6521 4.31425 15.0816 5.10504 14.0681 6.47501C13.7562 6.89825 13.0434 6.89825 12.7315 6.47501C11.6957 5.0939 10.1364 4.31425 8.4434 4.31425Z" fill="white"/>
</svg>
