<svg width="40" height="39" viewBox="0 0 40 39" fill="none" xmlns="http://www.w3.org/2000/svg">
<path d="M36.5564 12.0188L24.2752 2.19378C21.8752 0.281284 18.1252 0.262534 15.7439 2.17503L3.46267 12.0188C1.70017 13.425 0.631425 16.2375 1.00642 18.45L3.36892 32.5875C3.91267 35.7563 6.85642 38.25 10.0627 38.25H29.9377C33.1064 38.25 36.1064 35.7 36.6502 32.5688L39.0127 18.4313C39.3502 16.2375 38.2814 13.425 36.5564 12.0188ZM21.4064 30.75C21.4064 31.5188 20.7689 32.1563 20.0002 32.1563C19.2314 32.1563 18.5939 31.5188 18.5939 30.75V25.125C18.5939 24.3563 19.2314 23.7188 20.0002 23.7188C20.7689 23.7188 21.4064 24.3563 21.4064 25.125V30.75Z" fill="#292D32"/>
</svg>
