<svg width="43" height="43" viewBox="0 0 43 43" fill="none" xmlns="http://www.w3.org/2000/svg">
<path d="M26.3855 42.715C23.7851 42.715 20.1049 40.8859 17.196 32.1371L15.6093 27.3771L10.8493 25.7904C2.12255 22.8815 0.293457 19.2013 0.293457 16.6009C0.293457 14.0225 2.12255 10.3203 10.8493 7.38931L29.5589 1.15278C34.2308 -0.411865 38.1313 0.0509158 40.5334 2.43093C42.9355 4.81095 43.3982 8.73358 41.8336 13.4055L35.5971 32.1151C32.6661 40.8859 28.9859 42.715 26.3855 42.715ZM11.885 10.5406C5.75868 12.5901 3.577 15.0142 3.577 16.6009C3.577 18.1875 5.75868 20.6116 11.885 22.6391L17.4384 24.4902C17.9232 24.6444 18.3199 25.0411 18.4742 25.5259L20.3253 31.0793C22.3527 37.2057 24.7988 39.3873 26.3855 39.3873C27.9722 39.3873 30.3963 37.2057 32.4457 31.0793L38.6823 12.3697C39.8062 8.97599 39.6078 6.1993 38.1754 4.76688C36.743 3.33446 33.9663 3.15816 30.5946 4.28206L11.885 10.5406Z" fill="white"/>
<path d="M17.3282 26.782C16.9095 26.782 16.4908 26.6277 16.1602 26.2972C15.5211 25.6581 15.5211 24.6003 16.1602 23.9612L24.0495 16.0499C24.6886 15.4108 25.7464 15.4108 26.3855 16.0499C27.0246 16.6889 27.0246 17.7467 26.3855 18.3858L18.4962 26.2972C18.1876 26.6277 17.7469 26.782 17.3282 26.782Z" fill="white"/>
</svg>
