<svg width="37" height="47" viewBox="0 0 37 47" fill="none" xmlns="http://www.w3.org/2000/svg">
<path d="M18.5352 41.4734C13.6238 41.4734 8.71238 40.6935 4.05391 39.1336C2.28327 38.5223 0.934205 37.2787 0.343991 35.6556C-0.267302 34.0325 -0.0565114 32.2408 0.913126 30.6388L3.33722 26.6126C3.84312 25.7695 4.30686 24.0832 4.30686 23.0924V17.0006C4.30686 9.15918 10.6938 2.77222 18.5352 2.77222C26.3766 2.77222 32.7636 9.15918 32.7636 17.0006V23.0924C32.7636 24.0621 33.2273 25.7695 33.7332 26.6337L36.1363 30.6388C37.0427 32.1564 37.2113 33.9903 36.6 35.6556C35.9887 37.3208 34.6607 38.5856 32.9955 39.1336C28.3581 40.6935 23.4467 41.4734 18.5352 41.4734ZM18.5352 5.93408C12.4434 5.93408 7.46872 10.8877 7.46872 17.0006V23.0924C7.46872 24.6312 6.83634 26.9078 6.05642 28.2357L3.63233 32.2618C3.16859 33.0418 3.04211 33.8638 3.31614 34.5595C3.56909 35.2761 4.20146 35.8242 5.0657 36.1193C13.8768 39.0704 23.2148 39.0704 32.0258 36.1193C32.7847 35.8664 33.3749 35.2972 33.6489 34.5384C33.923 33.7795 33.8597 32.9574 33.4381 32.2618L31.014 28.2357C30.213 26.8656 29.6017 24.6101 29.6017 23.0714V17.0006C29.6017 10.8877 24.6482 5.93408 18.5352 5.93408Z" fill="white"/>
<path d="M22.4558 6.50313C22.3082 6.50313 22.1607 6.48205 22.0131 6.43989C21.4018 6.27126 20.8116 6.14478 20.2425 6.06047C18.4508 5.8286 16.7223 5.95507 15.0992 6.43989C14.509 6.6296 13.8766 6.43989 13.4761 5.99723C13.0756 5.55457 12.9491 4.9222 13.181 4.35306C14.0452 2.13976 16.1531 0.685303 18.5561 0.685303C20.9592 0.685303 23.0671 2.11868 23.9313 4.35306C24.1421 4.9222 24.0367 5.55457 23.6362 5.99723C23.32 6.33449 22.8774 6.50313 22.4558 6.50313Z" fill="white"/>
<path d="M18.5353 46.2794C16.4484 46.2794 14.4248 45.4362 12.9493 43.9607C11.4738 42.4852 10.6306 40.4616 10.6306 38.3748H13.7925C13.7925 39.6184 14.2984 40.841 15.1837 41.7263C16.069 42.6116 17.2916 43.1175 18.5353 43.1175C21.1491 43.1175 23.2781 40.9886 23.2781 38.3748H26.4399C26.4399 42.7381 22.8986 46.2794 18.5353 46.2794Z" fill="white"/>
</svg>
