<svg width="51" height="51" viewBox="0 0 51 51" fill="none" xmlns="http://www.w3.org/2000/svg">
<path d="M25.4931 48.1461C23.1955 48.1461 20.9189 47.4716 19.1272 46.1436L10.0632 39.3772C7.66022 37.5855 5.78418 33.8334 5.78418 30.8613V15.1784C5.78418 11.9323 8.16611 8.4753 11.2226 7.33703L21.741 3.39525C23.8279 2.61532 27.1162 2.61532 29.203 3.39525L39.7215 7.33703C42.7779 8.4753 45.1599 11.9323 45.1599 15.1784V30.8402C45.1599 33.8334 43.2838 37.5644 40.8808 39.3561L31.8168 46.1225C30.0673 47.4716 27.7907 48.1461 25.4931 48.1461ZM22.8582 6.3674L12.3398 10.3092C10.548 10.9837 8.96712 13.2603 8.96712 15.1995V30.8613C8.96712 32.8638 10.3794 35.6673 11.9603 36.8477L21.0243 43.6141C23.4484 45.4269 27.5378 45.4269 29.9829 43.6141L39.047 36.8477C40.649 35.6462 42.0402 32.8638 42.0402 30.8613V15.1784C42.0402 13.2603 40.4592 10.9837 38.6675 10.2881L28.1491 6.34632C26.7157 5.84042 24.2705 5.84042 22.8582 6.3674Z" fill="white"/>
<path d="M22.6686 30.1657C22.2681 30.1657 21.8676 30.0181 21.5514 29.7019L18.1577 26.3082C17.5464 25.6969 17.5464 24.6851 18.1577 24.0738C18.769 23.4625 19.7808 23.4625 20.3921 24.0738L22.6686 26.3503L30.6154 18.4035C31.2267 17.7922 32.2385 17.7922 32.8498 18.4035C33.4611 19.0148 33.4611 20.0266 32.8498 20.6379L23.7858 29.7019C23.4696 30.0181 23.0691 30.1657 22.6686 30.1657Z" fill="white"/>
</svg>
