<svg width="38" height="48" viewBox="0 0 38 48" fill="none" xmlns="http://www.w3.org/2000/svg">
<path d="M25.1375 -0.000244141H3.88629C2.11581 -0.000244141 0.666748 1.44746 0.666748 3.2193V44.4455C0.666748 46.2174 2.11581 47.6664 3.88629 47.6664H25.1375C26.9079 47.6664 28.357 46.2201 28.357 44.4469V3.2193C28.357 1.44746 26.9079 -0.000244141 25.1375 -0.000244141ZM11.1126 2.32044H17.9112C18.1264 2.32044 18.3007 2.49477 18.3007 2.71131C18.3007 2.92649 18.1264 3.10081 17.9112 3.10081H11.1126C10.8974 3.10081 10.7231 2.92649 10.7231 2.71131C10.7231 2.49477 10.8974 2.32044 11.1126 2.32044ZM14.5119 46.0567C13.6225 46.0567 12.9021 45.3362 12.9021 44.4455C12.9021 43.5548 13.6225 42.8357 14.5119 42.8357C15.4012 42.8357 16.1216 43.5548 16.1216 44.4455C16.1216 45.3362 15.4012 46.0567 14.5119 46.0567ZM26.1167 41.7081H2.90708V5.10554H26.1167V41.7081Z" fill="#29323B"/>
<path d="M18.5 22.8332C18.5 18.0467 22.3802 14.1665 27.1667 14.1665H28.0333C32.8198 14.1665 36.7 18.0467 36.7 22.8332V22.8332C36.7 27.6196 32.8198 31.4998 28.0333 31.4998H27.1667C22.3802 31.4998 18.5 27.6196 18.5 22.8332V22.8332Z" fill="#F9F9F9"/>
<path d="M27.5335 27.7835C28.2486 27.7835 28.8284 27.2037 28.8284 26.4885C28.8284 25.7734 28.2486 25.1936 27.5335 25.1936C26.8183 25.1936 26.2385 25.7734 26.2385 26.4885C26.2385 27.2037 26.8183 27.7835 27.5335 27.7835Z" fill="#29323B"/>
<path d="M32.5224 21.571V20.578C32.5224 18.433 32.006 15.5889 27.5333 15.5889C23.0606 15.5889 22.5442 18.433 22.5442 20.578V21.571C20.3198 21.8491 19.5889 22.9772 19.5889 25.7498V27.2275C19.5889 30.4847 20.5819 31.4778 23.8391 31.4778H31.2275C34.4847 31.4778 35.4778 30.4847 35.4778 27.2275V25.7498C35.4778 22.9772 34.7469 21.8491 32.5224 21.571ZM27.5333 28.8879C26.2066 28.8879 25.1341 27.8074 25.1341 26.4886C25.1341 25.1619 26.2145 24.0894 27.5333 24.0894C28.8521 24.0894 29.9325 25.1699 29.9325 26.4886C29.9325 27.8154 28.86 28.8879 27.5333 28.8879ZM23.8391 21.4995C23.7756 21.4995 23.72 21.4995 23.6564 21.4995V20.578C23.6564 18.2503 24.3158 16.7011 27.5333 16.7011C30.7508 16.7011 31.4102 18.2503 31.4102 20.578V21.5075C31.3466 21.5075 31.291 21.5075 31.2275 21.5075H23.8391V21.4995Z" fill="#29323B"/>
</svg>
