<svg width="49" height="48" viewBox="0 0 49 48" fill="none" xmlns="http://www.w3.org/2000/svg">
<path fill-rule="evenodd" clip-rule="evenodd" d="M22.135 5.72447C22.1348 5.72489 22.1353 5.72405 22.135 5.72447L18.2608 13.473C17.8479 14.3123 17.1584 15.0294 16.4502 15.5545C15.7399 16.0811 14.8574 16.5285 13.9492 16.6827L13.9434 16.6837L6.91434 17.8515C6.91407 17.8516 6.91462 17.8515 6.91434 17.8515C4.95391 18.1784 4.31528 18.9505 4.16775 19.4125C4.0197 19.8762 4.09366 20.877 5.49742 22.2807L10.9626 27.7459C11.6731 28.4564 12.1483 29.4065 12.4104 30.3219C12.6727 31.2382 12.7708 32.2918 12.5527 33.2649L12.5502 33.2758L10.9855 40.0412C10.4028 42.5594 10.9922 43.4785 11.2915 43.697C11.5922 43.9163 12.6508 44.1973 14.8785 42.8753L21.4799 38.9674C22.3965 38.4341 23.4942 38.2143 24.501 38.2143C25.5062 38.2143 26.6043 38.4335 27.5164 38.9738C27.5166 38.9739 27.5162 38.9736 27.5164 38.9738L34.1042 42.8736C34.1046 42.8738 34.1037 42.8733 34.1042 42.8736C36.35 44.1998 37.4076 43.92 37.7028 43.7048C37.9952 43.4916 38.5846 42.578 37.9997 40.04L36.4328 33.2649C36.2147 32.2918 36.3129 31.2382 36.5751 30.3219C36.8372 29.4065 37.3124 28.4564 38.0229 27.7459L43.4881 22.2807L43.4921 22.2767C44.9051 20.8733 44.9748 19.8752 44.827 19.4155C44.6781 18.9521 44.0341 18.1789 42.072 17.8516C42.0717 17.8516 42.0723 17.8517 42.072 17.8516L35.0422 16.6837C34.1246 16.5308 33.2351 16.0851 32.5192 15.5568C31.8061 15.0307 31.1159 14.3129 30.7028 13.4731L26.8254 5.71828C25.898 3.85389 24.9557 3.47819 24.49 3.47819C24.0215 3.47819 23.0732 3.85864 22.135 5.72447ZM29.7843 4.24473C28.6181 1.90075 26.7951 0.172607 24.49 0.172607C22.1875 0.172607 20.3588 1.8978 19.1815 4.23999L15.3014 12.0002L15.2954 12.0123C15.179 12.25 14.9007 12.5883 14.4814 12.8992C14.0635 13.2091 13.658 13.3786 13.3981 13.4234C13.3974 13.4235 13.3966 13.4236 13.3958 13.4238L6.37174 14.5908C3.83723 15.0132 1.70869 16.2466 1.01882 18.407C0.329462 20.5658 1.34635 22.8044 3.16002 24.6181L8.62525 30.0833C8.84034 30.2984 9.08133 30.7037 9.23246 31.2316C9.38267 31.7564 9.39537 32.2323 9.32806 32.5376C9.32775 32.539 9.32743 32.5405 9.32711 32.5419L7.765 39.2962C7.76502 39.2961 7.76498 39.2962 7.765 39.2962C7.11369 42.1109 7.3396 44.9054 9.34312 46.3673C11.3454 47.8282 14.0772 47.1946 16.5655 45.718L23.1423 41.8246C23.1436 41.8238 23.145 41.823 23.1464 41.8222C23.4422 41.6515 23.9294 41.5199 24.501 41.5199C25.0768 41.5199 25.5541 41.6533 25.8319 41.8179L32.4216 45.7189C34.9129 47.1904 37.648 47.8355 39.6501 46.3759C41.6551 44.9143 41.87 42.1146 41.2209 39.2976L39.6584 32.5419C39.6581 32.5405 39.6578 32.539 39.6575 32.5376C39.5902 32.2323 39.6029 31.7564 39.7531 31.2316C39.9042 30.7037 40.1452 30.2984 40.3603 30.0833L45.8215 24.6221C45.8223 24.6213 45.823 24.6206 45.8238 24.6199C47.6488 22.8062 48.6689 20.5658 47.974 18.404C47.2801 16.245 45.1475 15.013 42.6146 14.5909L35.5848 13.4229C35.585 13.423 35.5845 13.4229 35.5848 13.4229M29.7843 4.24473C29.7846 4.24521 29.7841 4.24424 29.7843 4.24473Z" fill="white"/>
</svg>
