<svg width="51" height="51" viewBox="0 0 51 51" fill="none" xmlns="http://www.w3.org/2000/svg">
<path d="M33.9249 48.3364H17.0616C9.36777 48.3364 4.94116 43.9098 4.94116 36.2159V15.1368C4.94116 7.44296 9.36777 3.01636 17.0616 3.01636H33.9249C41.6187 3.01636 46.0454 7.44296 46.0454 15.1368V36.2159C46.0454 43.9098 41.6187 48.3364 33.9249 48.3364ZM17.0616 6.17822C11.033 6.17822 8.10302 9.10821 8.10302 15.1368V36.2159C8.10302 42.2445 11.033 45.1745 17.0616 45.1745H33.9249C39.9535 45.1745 42.8835 42.2445 42.8835 36.2159V15.1368C42.8835 9.10821 39.9535 6.17822 33.9249 6.17822H17.0616Z" fill="white"/>
<path d="M39.1944 19.8799H34.9786C31.7746 19.8799 29.1819 17.2871 29.1819 14.0831V9.86731C29.1819 9.00307 29.8986 8.28638 30.7628 8.28638C31.6271 8.28638 32.3437 9.00307 32.3437 9.86731V14.0831C32.3437 15.5376 33.5242 16.718 34.9786 16.718H39.1944C40.0587 16.718 40.7754 17.4347 40.7754 18.2989C40.7754 19.1632 40.0587 19.8799 39.1944 19.8799Z" fill="white"/>
<path d="M25.493 29.3652H17.0614C16.1972 29.3652 15.4805 28.6485 15.4805 27.7843C15.4805 26.9201 16.1972 26.2034 17.0614 26.2034H25.493C26.3573 26.2034 27.074 26.9201 27.074 27.7843C27.074 28.6485 26.3573 29.3652 25.493 29.3652Z" fill="white"/>
<path d="M33.9247 37.7971H17.0614C16.1972 37.7971 15.4805 37.0804 15.4805 36.2162C15.4805 35.3519 16.1972 34.6353 17.0614 34.6353H33.9247C34.7889 34.6353 35.5056 35.3519 35.5056 36.2162C35.5056 37.0804 34.7889 37.7971 33.9247 37.7971Z" fill="white"/>
</svg>
